# xmcd CD database file
#
# Track frame offsets:
#	150
#	18807
#	40705
#	59413
#	80027
#	101886
#	120429
#	135799
#	154420
#	177561
#	197835
#	219805
#
# Disc length: 3103 seconds
#
# Revision: 5
# Processed by: cddbd v1.5.2PL0 Copyright (c) Steve Scherf et al.
# Submitted via: CDex 1.70beta3
#
DISCID=9c0c1d0c
DTITLE=CooRie - トレモロ
DYEAR=2006
DGENRE=Vocal
TTITLE0=光のシルエット
TTITLE1=暁に咲く詩
TTITLE2=いたずらな雨
TTITLE3=天空の花
TTITLE4=月明かりセレナード
TTITLE5=バスタブルース
TTITLE6=記憶ラブレター
TTITLE7=風 ～スタートライン～
TTITLE8=心編み
TTITLE9=メロトロン
TTITLE10=いろは
TTITLE11=トレモロ ～夢の続き～
EXTD=YEAR: 2006
EXTT0=
EXTT1=
EXTT2=
EXTT3=
EXTT4=
EXTT5=
EXTT6=
EXTT7=
EXTT8=
EXTT9=
EXTT10=
EXTT11=
PLAYORDER=
